<svg width="80" height="80" viewBox="0 0 80 80" fill="none" xmlns="http://www.w3.org/2000/svg">
<path d="M39.6675 37.7937C39.065 37.7671 38.5674 38.2336 38.5553 38.8366C38.5432 39.438 39.0211 39.9477 39.6229 39.9751C40.2246 40.001 40.7222 39.5345 40.7351 38.9323C40.7464 38.33 40.2685 37.8203 39.6675 37.7937Z" fill="#E03435"/>
<path d="M40.062 18.165C37.051 18.0318 34.5646 20.3631 34.5038 23.3766C34.4434 26.3822 36.8381 28.9364 39.8429 29.0702C42.8464 29.2022 45.3402 26.865 45.4007 23.8587C45.4613 20.8455 43.0734 18.2981 40.062 18.165ZM43.2213 23.7622C43.1851 25.5655 41.689 26.9684 39.8867 26.8892C38.084 26.8089 36.6469 25.2763 36.6832 23.473C36.7196 21.665 38.2113 20.266 40.0182 20.346C41.8246 20.4258 43.2578 21.954 43.2213 23.7622Z" fill="#E03435"/>
<path d="M40.413 0.716707C40.1104 0.703399 39.8194 0.815244 39.6084 1.02903C39.4368 1.20219 35.3686 5.34414 32.0462 11.8819C29.3824 17.1192 27.9799 22.3567 27.8775 27.449C27.8546 28.5901 27.881 29.7525 27.9549 30.9165C23.9377 31.7753 22.3363 34.1887 21.7046 36.1203C20.25 40.5679 22.575 46.7607 25.5633 49.9477C25.8688 50.2731 26.3357 50.3871 26.7462 50.2363C26.8822 50.1865 27.0031 50.1107 27.1044 50.0158C27.309 49.8239 27.4332 49.5536 27.4392 49.2586C27.5015 46.1614 29.5434 44.4369 30.2598 43.9262L30.7994 43.9501C31.4959 45.7785 32.2907 47.5008 33.1681 49.0781C33.486 49.6486 33.9835 50.1011 34.5747 50.3874C34.153 51.4543 33.9147 52.6635 33.8896 53.9108C33.8098 57.8807 38.1353 63.3172 38.3194 63.5467C38.5216 63.7985 38.8216 63.9518 39.1404 63.9659C39.4305 63.9787 39.7098 63.8753 39.9173 63.6807C39.9379 63.6614 39.9578 63.6412 39.9769 63.6201C40.17 63.4074 44.7066 58.3628 44.7865 54.393C44.8115 53.1461 44.6223 51.9182 44.2443 50.8161C44.8813 50.5688 45.3787 50.1456 45.7013 49.632C46.6401 48.1358 47.5027 46.4871 48.2715 44.7233L48.8112 44.7471C49.5058 45.3204 51.4747 47.2224 51.4123 50.3194C51.4035 50.7604 51.6609 51.1698 52.0647 51.3565C52.4684 51.5434 52.9389 51.4708 53.2568 51.1727C56.3679 48.2556 58.9378 42.2794 57.6646 37.7112C57.1118 35.7273 55.6103 33.1766 51.6347 31.9641C51.7552 30.8092 51.8284 29.6512 51.8514 28.5096C51.9538 23.4173 50.7643 18.0651 48.3162 12.602C45.2624 5.7818 41.3679 1.28755 41.2036 1.09961C41.002 0.868801 40.7156 0.730172 40.413 0.716707ZM25.6968 46.568C23.9153 43.6895 22.8429 39.7034 23.7779 36.8443C24.4028 34.9337 25.8731 33.685 28.1532 33.1217C28.4884 36.0307 29.1143 38.9164 30.0214 41.7328C30.0028 41.7364 29.6904 41.6868 29.3707 41.8726C29.2391 41.9489 26.7297 43.4407 25.6968 46.568ZM42.6071 54.2965C42.5644 56.417 40.5766 59.3782 39.1977 61.1192C37.8913 59.2592 36.0262 56.1276 36.0689 54.0072C36.0928 52.8197 36.3538 51.6917 36.8109 50.7655L41.9967 50.995C42.4158 51.9599 42.6311 53.1089 42.6071 54.2965ZM43.8481 48.4382C43.6765 48.7112 43.3309 48.8706 42.9472 48.8539C40.9536 48.7657 40.1737 48.7312 39.929 48.7205C39.4803 48.7006 38.3799 48.6519 35.9492 48.5443C35.5644 48.5269 35.2259 48.3373 35.0659 48.0502C34.3759 46.8097 33.7389 45.4705 33.1638 44.0547L45.9072 44.6185C45.2761 45.9812 44.5865 47.2615 43.8481 48.4382ZM55.5663 38.2507C56.3846 41.1874 55.154 45.0715 53.26 47.7872C52.6516 45.6285 51.0841 43.624 49.7577 42.761C49.4496 42.5605 49.161 42.5851 49.1373 42.5784C50.156 39.8474 50.8967 37.0222 51.3484 34.1479C53.6019 34.9119 55.0195 36.2886 55.5663 38.2507ZM49.6722 28.413C49.6442 29.8026 49.5387 31.2187 49.3587 32.6218C48.9251 35.994 48.0726 39.3054 46.8237 42.4762L32.3352 41.8353C31.2158 38.5596 30.498 35.1787 30.2009 31.7746C30.0776 30.357 30.0291 28.9341 30.0571 27.5451C30.149 22.9763 31.3741 18.2599 33.6937 13.5169L46.6061 14.0882C48.7309 19.0276 49.7643 23.8439 49.6722 28.413ZM45.5793 11.8597L34.8083 11.3831C36.9085 7.62414 39.1782 4.82587 40.3577 3.47896C41.4812 4.92808 43.6342 7.9221 45.5793 11.8597Z" fill="#E03435"/>
<path d="M50.2559 53.5427C49.654 53.5162 49.1564 53.9831 49.1444 54.5852L49.0574 58.9474C49.0454 59.5496 49.5235 60.0594 50.1252 60.0859C50.7271 60.1123 51.2248 59.6457 51.2367 59.0434L51.3238 54.6813C51.3357 54.079 50.8576 53.5692 50.2559 53.5427Z" fill="#E03435"/>
<path d="M28.4635 52.5785C27.8618 52.5518 27.3641 53.0184 27.3518 53.6207L27.2632 57.9828C27.251 58.585 27.7289 59.0949 28.3307 59.1217C28.9322 59.1484 29.4302 58.6821 29.4424 58.0796L29.531 53.7175C29.5433 53.1152 29.0653 52.6053 28.4635 52.5785Z" fill="#E03435"/>
<path d="M45.7669 59.8935C45.1653 59.8667 44.6675 60.3335 44.6552 60.9357L44.4443 71.3818C44.4321 71.9841 44.9101 72.494 45.5119 72.5206C46.1135 72.5473 46.6114 72.0808 46.6236 71.4784L46.8345 61.0323C46.8467 60.43 46.3687 59.9201 45.7669 59.8935Z" fill="#E03435"/>
<path d="M39.4783 65.7896C38.8766 65.7629 38.3788 66.2296 38.3667 66.8318L38.1557 77.2779C38.1435 77.8802 38.6216 78.39 39.2233 78.4166C39.8249 78.4434 40.3229 77.9768 40.335 77.3744L40.5459 66.9283C40.5581 66.326 40.0801 65.8162 39.4783 65.7896Z" fill="#E03435"/>
<path d="M32.6893 59.3148C32.0877 59.2882 31.5899 59.755 31.5778 60.3572L31.3683 70.8033C31.3563 71.4056 31.8343 71.9154 32.4362 71.942C33.038 71.9687 33.5357 71.502 33.5477 70.8997L33.7572 60.4535C33.7692 59.8512 33.2912 59.3415 32.6893 59.3148Z" fill="#E03435"/>
<path d="M39.7989 31.2506C39.1971 31.2241 38.6995 31.6906 38.6873 32.293L38.6434 34.4736C38.6313 35.0759 39.1093 35.5857 39.7112 35.6124C40.313 35.639 40.8106 35.1724 40.8228 34.5701L40.8667 32.3894C40.8788 31.7872 40.4008 31.2773 39.7989 31.2506Z" fill="#E03435"/>
</svg>
