<svg width="75" height="105" viewBox="0 0 75 105" fill="none" xmlns="http://www.w3.org/2000/svg">
<path d="M74.3525 104.429H2.91504V88.9604L35.8213 54.3667C43.9307 45.1323 47.9854 37.7964 47.9854 32.3589C47.9854 27.9526 47.0244 24.6011 45.1025 22.3042C43.1807 20.0073 40.3916 18.8589 36.7354 18.8589C33.126 18.8589 30.1963 20.4058 27.9463 23.4995C25.6963 26.5464 24.5713 30.3667 24.5713 34.9604H0.805664C0.805664 28.6792 2.37598 22.8901 5.5166 17.5933C8.65723 12.2495 13.0166 8.07764 18.5947 5.07764C24.1729 2.07764 30.4072 0.577637 37.2979 0.577637C48.3604 0.577637 56.8682 3.13232 62.8213 8.2417C68.8213 13.3511 71.8213 20.687 71.8213 30.2495C71.8213 34.2808 71.0713 38.2183 69.5713 42.062C68.0713 45.8589 65.7275 49.8667 62.54 54.0854C59.3994 58.2573 54.3135 63.8589 47.2822 70.8901L34.0635 86.1479H74.3525V104.429Z" fill="white" fill-opacity="0.08"/>
</svg>
