<svg width="75" height="106" viewBox="0 0 75 106" fill="none" xmlns="http://www.w3.org/2000/svg">
<path d="M24.7222 42.8076H35.9019C44.7612 42.8076 49.1909 38.4717 49.1909 29.7998C49.1909 26.4248 48.1362 23.6826 46.0269 21.5732C43.9175 19.417 40.9409 18.3389 37.0972 18.3389C33.9565 18.3389 31.2144 19.2529 28.8706 21.0811C26.5737 22.9092 25.4253 25.1826 25.4253 27.9014H1.72998C1.72998 22.5107 3.22998 17.7061 6.22998 13.4873C9.22998 9.26855 13.3784 5.9873 18.6753 3.64355C24.019 1.25293 29.8784 0.0576172 36.2534 0.0576172C47.644 0.0576172 56.5972 2.65918 63.1128 7.8623C69.6284 13.0654 72.8862 20.2139 72.8862 29.3076C72.8862 33.7139 71.5269 37.8857 68.8081 41.8232C66.1362 45.7139 62.2222 48.8779 57.0659 51.3154C62.5034 53.2842 66.769 56.2842 69.8628 60.3154C72.9565 64.2998 74.5034 69.2451 74.5034 75.1514C74.5034 84.292 70.9878 91.6045 63.9565 97.0889C56.9253 102.573 47.6909 105.315 36.2534 105.315C29.5503 105.315 23.3159 104.05 17.5503 101.519C11.8315 98.9404 7.49561 95.4014 4.54248 90.9014C1.58936 86.3545 0.112793 81.1982 0.112793 75.4326H23.9487C23.9487 78.5732 25.2144 81.292 27.7456 83.5889C30.2769 85.8857 33.394 87.0342 37.0972 87.0342C41.269 87.0342 44.5972 85.8857 47.0815 83.5889C49.5659 81.2451 50.8081 78.2686 50.8081 74.6592C50.8081 69.5029 49.519 65.8467 46.9409 63.6904C44.3628 61.5342 40.8003 60.4561 36.2534 60.4561H24.7222V42.8076Z" fill="white" fill-opacity="0.08"/>
</svg>
