<svg width="44" height="43" viewBox="0 0 44 43" fill="none" xmlns="http://www.w3.org/2000/svg">
<path d="M19.4342 14.2631C18.2488 14.2631 17.2842 15.2053 17.2842 16.3631H18.7175C18.7175 15.9774 19.0386 15.6631 19.4342 15.6631C19.8298 15.6631 20.1508 15.9774 20.1508 16.3631H21.5842C21.5842 15.2053 20.6195 14.2631 19.4342 14.2631Z" fill="#EDDA36"/>
<path d="M25.1676 14.2631C23.9822 14.2631 23.0176 15.2053 23.0176 16.3631H24.4509C24.4509 15.9774 24.772 15.6631 25.1676 15.6631C25.5632 15.6631 25.8842 15.9774 25.8842 16.3631H27.3176C27.3176 15.2053 26.3529 14.2631 25.1676 14.2631Z" fill="#EDDA36"/>
<path d="M22.3007 33.1631C20.7198 33.1631 19.4341 34.4189 19.4341 35.9631C19.4341 37.5073 20.7198 38.7631 22.3007 38.7631C23.8817 38.7631 25.1674 37.5073 25.1674 35.9631C25.1674 34.4189 23.8817 33.1631 22.3007 33.1631ZM22.3007 37.3631C21.5103 37.3631 20.8674 36.7352 20.8674 35.9631C20.8674 35.191 21.5103 34.5631 22.3007 34.5631C23.0912 34.5631 23.7341 35.191 23.7341 35.9631C23.7341 36.7352 23.0912 37.3631 22.3007 37.3631Z" fill="#EDDA36"/>
<path d="M39.5008 41.5631V32.4631C39.5008 26.6734 34.6783 21.9631 28.7508 21.9631H27.9703C28.2255 21.744 28.4655 21.5102 28.6927 21.2631H29.4674C31.4433 21.2631 33.0508 19.693 33.0508 17.7631V16.5297C33.9144 15.9641 34.4841 15.0023 34.4841 13.9131C34.4841 12.8197 33.9101 11.8565 33.0422 11.2916C32.9469 5.58174 28.1696 0.963135 22.3008 0.963135C16.432 0.963135 11.6547 5.58174 11.5594 11.2916C10.6915 11.8565 10.1174 12.8197 10.1174 13.9131C10.1174 15.6498 11.5644 17.0631 13.3424 17.0631H13.8305C14.1659 19.0028 15.1807 20.7157 16.6319 21.9631H15.8508C9.92323 21.9631 5.10078 26.6734 5.10078 32.4631V41.5631H0.800781V42.9631H5.81745H9.40078H35.2008H38.7841H43.8008V41.5631H39.5008ZM31.6174 17.7631C31.6174 18.825 30.8033 19.6958 29.7548 19.8344C30.2515 18.9909 30.5998 18.0564 30.7711 17.0631H31.2591C31.3817 17.0631 31.4985 17.0407 31.6174 17.0274V17.7631ZM33.0508 13.9131C33.0508 14.8777 32.2474 15.6631 31.2591 15.6631H30.9008V12.1631H31.2591C32.2474 12.1631 33.0508 12.9485 33.0508 13.9131ZM13.7008 15.6631H13.3424C12.3542 15.6631 11.5508 14.8777 11.5508 13.9131C11.5508 12.9485 12.3542 12.1631 13.3424 12.1631H13.7008V15.6631ZM13.3424 10.7631C13.2314 10.7631 13.1267 10.7841 13.0185 10.7953C13.3711 6.08923 17.3945 2.36313 22.3008 2.36313C27.2071 2.36313 31.2304 6.08923 31.583 10.7953C31.4748 10.7841 31.3702 10.7631 31.2591 10.7631H30.7711C30.0859 6.79694 26.5535 3.76313 22.3008 3.76313C18.0481 3.76313 14.5156 6.79694 13.8305 10.7631H13.3424ZM29.4667 12.1456C24.2945 11.9678 20.8674 9.90213 20.8674 7.96313C20.8674 7.57673 20.5471 7.26313 20.1508 7.26313C19.7545 7.26313 19.4341 7.57673 19.4341 7.96313C19.4341 9.71243 17.5822 11.1621 15.1757 11.419C15.5577 7.90784 18.6071 5.16313 22.3008 5.16313C26.246 5.16313 29.4567 8.29423 29.4667 12.1456ZM15.1341 15.6631V12.8239C17.3723 12.6342 19.2714 11.58 20.2196 10.1037C21.7188 12.0441 25.2226 13.4098 29.4674 13.5491V15.6631C29.4674 17.2402 28.9242 18.6913 28.0205 19.8631H22.3008V21.2631H26.5821C26.1708 21.5641 25.7272 21.8231 25.2542 22.0331C23.3736 22.8675 21.2272 22.8675 19.346 22.0331C16.8663 20.9313 15.1341 18.4939 15.1341 15.6631ZM20.0856 23.7705C20.7936 23.9553 21.5339 24.0631 22.3008 24.0631C23.0676 24.0631 23.8079 23.9553 24.516 23.7705L22.3008 28.0979L20.0856 23.7705ZM21.1412 28.9631H19.877L17.0103 23.3631H18.2745L21.1412 28.9631ZM26.327 23.3631H27.5912L24.7245 28.9631H23.4603L26.327 23.3631ZM8.68411 32.4631V41.5631H6.53411V32.4631C6.53411 27.5876 10.4829 23.6074 15.4186 23.3848L18.2745 28.9631H12.2674C10.2916 28.9631 8.68411 30.5332 8.68411 32.4631ZM34.4841 41.5631H10.1174V32.4631C10.1174 31.3053 11.0821 30.3631 12.2674 30.3631H19.4341H22.3008H25.1674H32.3341C33.5195 30.3631 34.4841 31.3053 34.4841 32.4631V41.5631ZM38.0674 41.5631H35.9174V32.4631C35.9174 30.5332 34.31 28.9631 32.3341 28.9631H26.327L29.1829 23.3848C34.1186 23.6074 38.0674 27.5876 38.0674 32.4631V41.5631Z" fill="#EDDA36"/>
<path d="M33.051 35.2631H31.6177V40.1631H33.051V35.2631Z" fill="#EDDA36"/>
<path d="M33.051 32.4631H31.6177V33.8631H33.051V32.4631Z" fill="#EDDA36"/>
</svg>
