<svg width="41" height="42" viewBox="0 0 41 42" fill="none" xmlns="http://www.w3.org/2000/svg">
<g clip-path="url(#clip0)">
<path d="M28.9599 17.6683C28.9254 17.5887 28.8702 17.5205 28.8003 17.471C27.7808 16.2318 26.5091 15.2364 25.0744 14.5547C23.6397 13.8729 22.0768 13.5214 20.4954 13.5247C18.9141 13.528 17.3526 13.8861 15.9206 14.5739C14.4886 15.2617 13.2209 16.2625 12.2065 17.5059C12.1747 17.5345 12.1463 17.5667 12.1218 17.602C12.1174 17.6084 12.1149 17.6155 12.1112 17.6219C10.529 19.6046 9.66455 22.0872 9.66455 24.6487C9.66455 27.2102 10.529 29.6929 12.1112 31.6756C12.1153 31.682 12.1178 31.6894 12.1218 31.6958C12.1464 31.7311 12.1749 31.7633 12.2068 31.7919C13.2215 33.0351 14.4893 34.0357 15.9214 34.7232C17.3535 35.4107 18.915 35.7686 20.4964 35.7716C22.0778 35.7747 23.6406 35.4229 25.0752 34.7409C26.5098 34.0589 27.7814 33.0632 28.8006 31.8239C28.8691 31.7749 28.9232 31.7075 28.9568 31.6291C30.5179 29.6536 31.3697 27.1885 31.3697 24.6463C31.3697 22.1041 30.5179 19.639 28.9568 17.6635L28.9599 17.6683ZM28.3387 30.6291C27.6159 30.1835 26.8488 29.8184 26.0503 29.5401C26.4144 28.1262 26.6143 26.6733 26.6459 25.2114H30.2621C30.1567 27.1723 29.4875 29.0574 28.3387 30.6291ZM10.7762 25.2107H14.3915C14.4232 26.6726 14.6232 28.1256 14.9874 29.5394C14.1889 29.8178 13.4218 30.1829 12.699 30.6285C11.5501 29.0568 10.8807 27.1717 10.7753 25.2107H10.7762ZM12.6993 18.6715C13.4221 19.1171 14.1893 19.4822 14.9878 19.7606C14.6236 21.1744 14.4237 22.6274 14.3921 24.0893H10.7753C10.8807 22.1284 11.5499 20.2433 12.6987 18.6715H12.6993ZM21.0662 20.6575C22.3891 20.6217 23.7037 20.4317 24.9846 20.0912C25.325 21.3967 25.5147 22.7387 25.5499 24.0896H21.0656L21.0662 20.6575ZM21.0662 19.5364V14.7099C22.5349 15.0414 23.8381 16.6878 24.6574 19.0239C23.4824 19.3312 22.2777 19.5036 21.0656 19.538L21.0662 19.5364ZM19.9724 14.7083V19.538C18.7605 19.5035 17.556 19.3309 16.3812 19.0236C17.1999 16.6878 18.5018 15.0414 19.9718 14.7099L19.9724 14.7083ZM19.9724 20.6575V24.088H15.4874C15.5232 22.7375 15.7133 21.3959 16.054 20.0908C17.3347 20.4319 18.6491 20.6224 19.9718 20.6588L19.9724 20.6575ZM15.4874 25.2107H19.9718V28.6413C18.6489 28.677 17.3343 28.867 16.0534 29.2076C15.713 27.9025 15.523 26.5611 15.4874 25.2107ZM19.9718 29.7624V34.5904C18.5031 34.2589 17.1999 32.6125 16.3806 30.2765C17.5554 29.9692 18.7598 29.7968 19.9718 29.7624ZM21.0656 34.5907V29.7624C22.2776 29.7969 23.482 29.9694 24.6568 30.2768C23.8374 32.6125 22.5356 34.2589 21.0656 34.5904V34.5907ZM21.0656 28.6416V25.2107H25.5499C25.5142 26.5612 25.324 27.9028 24.9834 29.2079C23.7026 28.8673 22.3882 28.6772 21.0656 28.6413V28.6416ZM26.6459 24.0899C26.6142 22.6279 26.4142 21.1748 26.0499 19.7609C26.8485 19.4826 27.6156 19.1175 28.3384 18.6719C29.4873 20.2438 30.1566 22.1291 30.2618 24.0903L26.6459 24.0899ZM27.6234 17.8025C27.0203 18.1612 26.3849 18.4593 25.7259 18.6927C25.3186 17.4279 24.676 16.2561 23.8337 15.2419C25.2752 15.7791 26.5734 16.6561 27.6234 17.8022V17.8025ZM17.204 15.2416C16.3617 16.2557 15.7191 17.4276 15.3118 18.6924C14.6527 18.459 14.0172 18.1609 13.414 17.8022C14.4641 16.656 15.7623 15.7789 17.204 15.2416ZM13.414 31.4981C14.0172 31.1395 14.6527 30.8414 15.3118 30.608C15.7191 31.8727 16.3617 33.0446 17.204 34.0587C15.7623 33.5215 14.4641 32.6443 13.414 31.4981ZM23.8331 34.0587C24.6754 33.0445 25.318 31.8725 25.7253 30.6077C26.3844 30.841 27.0199 31.1391 27.6231 31.4978C26.5731 32.6441 25.275 33.5213 23.8334 34.0587H23.8331Z" fill="#FAFAFA"/>
<path d="M38.7217 3.81763H2.31543C1.83899 3.81822 1.38224 4.0125 1.04538 4.35785C0.708513 4.70319 0.519051 5.1714 0.518555 5.65974V37.2426C0.519134 37.7309 0.708633 38.199 1.04549 38.5442C1.38234 38.8895 1.83905 39.0838 2.31543 39.0844H38.7217C39.1981 39.0838 39.6548 38.8895 39.9916 38.5442C40.3285 38.199 40.518 37.7309 40.5186 37.2426V5.65974C40.5181 5.1714 40.3286 4.70319 39.9917 4.35785C39.6549 4.0125 39.1981 3.81822 38.7217 3.81763ZM1.6123 5.65974C1.61247 5.46865 1.6866 5.28544 1.81843 5.15032C1.95025 5.0152 2.129 4.93921 2.31543 4.93904H38.7217C38.9081 4.93921 39.0869 5.0152 39.2187 5.15032C39.3505 5.28544 39.4246 5.46865 39.4248 5.65974V10.2136H1.6123V5.65974ZM38.7217 37.9636H2.31543C2.12895 37.9634 1.95015 37.8874 1.81832 37.7522C1.68648 37.617 1.61239 37.4337 1.6123 37.2426V11.3347H39.4248V37.2426C39.4247 37.4337 39.3506 37.617 39.2188 37.7522C39.087 37.8874 38.9082 37.9634 38.7217 37.9636Z" fill="#FAFAFA"/>
<path d="M5.8833 7.01562H4.0083C3.86326 7.01563 3.72416 7.07468 3.6216 7.1798C3.51904 7.28493 3.46143 7.42751 3.46143 7.57617C3.46143 7.72484 3.51904 7.86742 3.6216 7.97254C3.72416 8.07766 3.86326 8.13672 4.0083 8.13672H5.8833C6.02834 8.13672 6.16744 8.07766 6.27 7.97254C6.37256 7.86742 6.43018 7.72484 6.43018 7.57617C6.43018 7.42751 6.37256 7.28493 6.27 7.1798C6.16744 7.07468 6.02834 7.01562 5.8833 7.01562Z" fill="#FAFAFA"/>
<path d="M11.1494 7.01562H9.27441C9.12937 7.01563 8.99027 7.07468 8.88771 7.1798C8.78516 7.28493 8.72754 7.42751 8.72754 7.57617C8.72754 7.72484 8.78516 7.86742 8.88771 7.97254C8.99027 8.07766 9.12937 8.13672 9.27441 8.13672H11.1494C11.2945 8.13672 11.4336 8.07766 11.5361 7.97254C11.6387 7.86742 11.6963 7.72484 11.6963 7.57617C11.6963 7.42751 11.6387 7.28493 11.5361 7.1798C11.4336 7.07468 11.2945 7.01562 11.1494 7.01562Z" fill="#FAFAFA"/>
<path d="M16.416 7.01562H14.541C14.396 7.01563 14.2569 7.07468 14.1543 7.1798C14.0518 7.28493 13.9941 7.42751 13.9941 7.57617C13.9941 7.72484 14.0518 7.86742 14.1543 7.97254C14.2569 8.07766 14.396 8.13672 14.541 8.13672H16.416C16.5611 8.13672 16.7002 8.07766 16.8027 7.97254C16.9053 7.86742 16.9629 7.72484 16.9629 7.57617C16.9629 7.42751 16.9053 7.28493 16.8027 7.1798C16.7002 7.07468 16.5611 7.01562 16.416 7.01562Z" fill="#FAFAFA"/>
</g>
<defs>
<clipPath id="clip0">
<rect width="40" height="41" fill="white" transform="translate(0.518555 0.951172)"/>
</clipPath>
</defs>
</svg>
