<svg width="45" height="44" viewBox="0 0 45 44" fill="none" xmlns="http://www.w3.org/2000/svg">
<path d="M44.1883 25.8863H37.2216C37.0424 25.8863 36.8713 25.9609 36.7493 26.0922C36.6273 26.2235 36.5655 26.3997 36.5789 26.5784C36.6236 27.1834 36.9463 27.7336 37.4422 28.0503C38.1926 28.5295 38.6285 29.3805 38.5794 30.2706C38.5112 31.4962 37.4988 32.5164 36.2746 32.5931C35.5828 32.6366 34.9264 32.4007 34.4245 31.9292C33.9219 31.4572 33.6452 30.8175 33.6452 30.1282C33.6452 29.2865 34.0691 28.5115 34.7806 28.0544C35.2793 27.7321 35.6045 27.181 35.6506 26.5801C35.6644 26.401 35.6029 26.2244 35.4809 26.0928C35.3589 25.961 35.1875 25.8862 35.008 25.8862H28.0803C27.7243 25.8862 27.4358 26.1748 27.4358 26.5307V32.2335C26.7257 31.3583 25.6645 30.8468 24.5231 30.8468C23.4901 30.8468 22.4917 31.2785 21.7841 32.0314C21.0661 32.7953 20.7065 33.7948 20.7717 34.846C20.8905 36.7422 22.4113 38.2517 24.3089 38.3572C25.5174 38.425 26.6809 37.9031 27.4357 36.9762V42.6388C27.4357 42.9948 27.7242 43.2834 28.0802 43.2834H35.6537C36.0098 43.2834 36.2983 42.9948 36.2983 42.6388C36.2983 42.2829 36.0098 41.9943 35.6537 41.9943H28.7248V35.7161C28.7248 35.5336 28.6474 35.3597 28.5119 35.2375C28.3764 35.1153 28.1954 35.0564 28.014 35.0749C27.4263 35.1356 26.9113 35.4487 26.6013 35.9338C26.1213 36.6846 25.2723 37.1198 24.3806 37.0702C23.1551 37.002 22.135 35.9896 22.0583 34.7659C22.0153 34.0739 22.2515 33.4163 22.7233 32.9143C23.1951 32.4124 23.8342 32.1359 24.523 32.1359C25.3644 32.1359 26.1399 32.5601 26.597 33.2697C26.9101 33.7576 27.4261 34.073 28.0126 34.1348C28.1949 34.154 28.3756 34.0951 28.5115 33.9729C28.6473 33.8507 28.7248 33.6765 28.7248 33.4938V27.1753H33.7943C32.8877 27.8842 32.3561 28.964 32.3561 30.1282C32.3561 31.162 32.7882 32.1608 33.5419 32.8688C34.306 33.5864 35.3042 33.9449 36.3552 33.8796C38.2514 33.7606 39.7609 32.2399 39.8664 30.3418C39.9343 29.1101 39.3918 27.9278 38.434 27.1753H43.5437V38.4092C43.5437 40.386 41.9355 41.9942 39.9587 41.9942H38.2314C37.8754 41.9942 37.5869 42.2828 37.5869 42.6388C37.5869 42.9947 37.8754 43.2833 38.2314 43.2833H39.9587C42.6462 43.2833 44.8328 41.0968 44.8328 38.4092V26.5308C44.8328 26.1749 44.5443 25.8863 44.1883 25.8863Z" fill="#EDDA36"/>
<path d="M14.0284 23.0006C14.8699 23.0006 15.6453 23.4248 16.1023 24.1344C16.4155 24.6223 16.9314 24.9377 17.5179 24.9995C17.6995 25.0187 17.8809 24.9598 18.0167 24.8376C18.1525 24.7154 18.23 24.5412 18.23 24.3585V18.0399H23.2996C22.393 18.7487 21.8613 19.8286 21.8613 20.9928C21.8613 22.0267 22.2935 23.0255 23.0472 23.7334C23.7517 24.3952 24.656 24.752 25.6161 24.7519C25.6972 24.7519 25.7789 24.7493 25.8607 24.7443C27.7568 24.6253 29.2663 23.1046 29.3717 21.2065C29.4396 19.9746 28.8973 18.7925 27.9394 18.0399H33.6936C34.0497 18.0399 34.3381 17.7514 34.3381 17.3954V5.51703C34.3381 2.82942 32.1516 0.642914 29.464 0.642914H17.5856H9.90457C9.54862 0.642914 9.26004 0.931492 9.26004 1.28745C9.26004 1.6434 9.54862 1.93198 9.90457 1.93198H16.941V8.29195C16.941 8.4744 17.0184 8.64825 17.1538 8.77054C17.2894 8.89274 17.4706 8.95187 17.6517 8.93313C18.2394 8.87246 18.7544 8.55939 19.0646 8.07419C19.5445 7.32361 20.396 6.88825 21.2851 6.93663C22.2809 6.99198 23.1411 7.67106 23.4698 8.58053C23.4824 8.61551 23.4943 8.65083 23.5054 8.68649C23.5496 8.82906 23.5808 8.9767 23.5977 9.12804C23.6019 9.16585 23.6052 9.20392 23.6076 9.24216C23.6505 9.93388 23.4143 10.5913 22.9423 11.0934C22.4704 11.5955 21.8313 11.872 21.1429 11.872C20.3019 11.872 19.5264 11.4474 19.0683 10.7361C18.7542 10.2486 18.2384 9.93353 17.6532 9.87183C17.6077 9.86702 17.5624 9.8671 17.5177 9.87183C17.3836 9.88601 17.2563 9.94213 17.1544 10.0337C17.0526 10.1254 16.9835 10.2463 16.9553 10.3781C16.9459 10.422 16.941 10.4671 16.941 10.5128V16.7509H15.9309C15.575 16.7509 15.2864 17.0394 15.2864 17.3954C15.2864 17.7514 15.575 18.0399 15.9309 18.0399H16.941V23.098C16.2309 22.223 15.1697 21.7114 14.0284 21.7114C12.9953 21.7114 11.997 22.1431 11.2894 22.8959C10.5714 23.6599 10.2117 24.6593 10.2769 25.7105C10.3959 27.6068 11.9166 29.1162 13.8141 29.2217C15.0239 29.2897 16.1861 28.7675 16.941 27.8406V32.8587H5.70712C3.7303 32.859 2.12207 31.2508 2.12207 29.2739V18.04H8.43573C8.6217 18.04 8.79855 17.9597 8.92093 17.8198C9.0433 17.6799 9.09925 17.4937 9.07441 17.3095C8.9987 16.7476 8.6889 16.2547 8.22363 15.9565C7.47323 15.4774 7.03744 14.6269 7.08642 13.7374C7.15457 12.5118 8.167 11.4917 9.39127 11.4149C10.0825 11.371 10.7398 11.6074 11.2418 12.0789C11.7441 12.5508 12.0208 13.1899 12.0208 13.8785C12.0208 14.7209 11.5968 15.4964 10.8854 15.9535C10.4196 16.2543 10.1076 16.7473 10.0294 17.3061C10.0035 17.4908 10.0589 17.6777 10.1814 17.8184C10.3038 17.9592 10.4811 18.0399 10.6677 18.0399H13.3531C13.709 18.0399 13.9976 17.7514 13.9976 17.3954C13.9976 17.0394 13.709 16.7509 13.3531 16.7509H11.9725C12.8175 16.0421 13.3099 14.9994 13.3099 13.8785C13.3099 12.8454 12.8778 11.8469 12.1244 11.1392C11.3603 10.4215 10.3613 10.0627 9.31074 10.1283C7.41453 10.2471 5.90504 11.7679 5.79951 13.6661C5.73411 14.8544 6.2371 15.9966 7.13283 16.7509H2.12207V5.51703C2.12207 3.54021 3.7303 1.93198 5.70712 1.93198H7.32653C7.68248 1.93198 7.97106 1.6434 7.97106 1.28745C7.97106 0.931492 7.68248 0.642914 7.32653 0.642914H5.70712C3.01952 0.642914 0.833008 2.82942 0.833008 5.51703V17.3955V29.2739C0.833008 31.9615 3.01952 34.1481 5.70712 34.1481H17.5856C17.9415 34.1481 18.2301 33.8595 18.2301 33.5035V26.5807C18.2301 26.3983 18.1528 26.2244 18.0172 26.1022C17.8817 25.98 17.7007 25.921 17.5193 25.9396C16.9316 26.0003 16.4166 26.3134 16.1066 26.7985C15.6266 27.5492 14.7759 27.9844 13.8861 27.9349C12.6605 27.8667 11.6403 26.8543 11.5636 25.6305C11.5206 24.9385 11.757 24.2809 12.2287 23.7789C12.7005 23.277 13.3397 23.0006 14.0284 23.0006ZM18.2301 11.7734C18.9406 12.6492 20.0018 13.1612 21.1428 13.1612C22.1757 13.1612 23.1738 12.7293 23.8815 11.9764C24.5997 11.2122 24.9594 10.2128 24.8941 9.16198C24.7753 7.26509 23.2545 5.75508 21.3563 5.64946C20.1466 5.58363 18.9846 6.10527 18.2301 7.03185V1.93198H29.464C31.4409 1.93198 33.0491 3.54021 33.0491 5.51703V16.751H26.7269C26.5477 16.751 26.3766 16.8255 26.2546 16.9569C26.1327 17.0882 26.0709 17.2643 26.0842 17.4431C26.129 18.0481 26.4517 18.5983 26.9476 18.9149C27.698 19.3941 28.1338 20.2451 28.0847 21.1353C28.0166 22.3609 27.0042 23.381 25.7801 23.4578C25.0889 23.5018 24.4317 23.2654 23.9298 22.7939C23.4273 22.3219 23.1505 21.6822 23.1505 20.9929C23.1505 20.1512 23.5746 19.3763 24.286 18.9192C24.7846 18.5969 25.1098 18.0458 25.156 17.4448C25.1697 17.2658 25.1082 17.0892 24.9863 16.9575C24.8642 16.8258 24.6929 16.751 24.5133 16.751H18.2302V11.7734H18.2301Z" fill="#EDDA36"/>
</svg>
