<svg width="43" height="45" viewBox="0 0 43 45" fill="none" xmlns="http://www.w3.org/2000/svg">
<g clip-path="url(#clip0)">
<path d="M28.6668 4.55396H14.3335V6.02062H28.6668V4.55396Z" fill="#FAFAFA"/>
<path d="M35.4752 28.3873C35.4752 26.9721 34.3498 25.8206 32.9669 25.8206H31.5336V15.554H30.1002V25.8206H28.3086C26.9256 25.8206 25.8002 26.9722 25.8002 28.3873C25.8002 29.1058 26.0921 29.7542 26.5586 30.2206C26.0921 30.687 25.8002 31.3355 25.8002 32.054C25.8002 32.5483 25.944 33.0064 26.1818 33.3985C25.3245 33.8071 24.7252 34.691 24.7252 35.7206C24.7252 36.1158 24.8203 36.4859 24.9769 36.8206H19.3502C19.3502 34.5784 18.2521 32.594 16.5774 31.4008C18.1968 30.7692 19.3502 29.1636 19.3502 27.2873C19.3502 26.8823 19.0297 26.554 18.6336 26.554H12.9002V19.2206H11.4669V26.554C10.2813 26.554 9.31689 27.5408 9.31689 28.754V44.8873H10.7502V28.754C10.7502 28.3497 11.0715 28.0206 11.4669 28.0206H17.8259C17.5074 29.2842 16.3834 30.2206 15.0502 30.2206H12.9002C12.5041 30.2206 12.1836 30.549 12.1836 30.954C12.1836 31.3589 12.5041 31.6873 12.9002 31.6873C15.6661 31.6873 17.9169 33.99 17.9169 36.8206V37.554C17.9169 37.9589 18.2374 38.2873 18.6336 38.2873H22.8269C22.6703 38.622 22.5752 38.9921 22.5752 39.3873C22.5752 40.8024 23.7007 41.954 25.0836 41.954V44.8873H26.5169V41.954H29.3836H29.7419C31.1249 41.954 32.2502 40.8023 32.2502 39.3873C32.2502 38.9879 32.1529 38.6143 31.993 38.2768C33.3283 38.2211 34.4002 37.1003 34.4002 35.7206C34.4002 35.2263 34.2564 34.7682 34.0187 34.3761C34.876 33.9675 35.4752 33.0836 35.4752 32.054C35.4752 31.3355 35.1834 30.687 34.7168 30.2206C35.1834 29.7542 35.4752 29.1058 35.4752 28.3873ZM29.7419 40.4873H29.3836H25.8002H25.0836C24.4908 40.4873 24.0086 39.9938 24.0086 39.3873C24.0086 38.7807 24.4908 38.2873 25.0836 38.2873H27.2336H29.7419C30.3347 38.2873 30.8169 38.7807 30.8169 39.3873C30.8169 39.9938 30.3347 40.4873 29.7419 40.4873ZM31.8919 36.8206H29.7419H27.2336C26.6408 36.8206 26.1586 36.3272 26.1586 35.7206C26.1586 35.1141 26.6408 34.6206 27.2336 34.6206H28.3086H31.8919C32.4847 34.6206 32.9669 35.1141 32.9669 35.7206C32.9669 36.3272 32.4847 36.8206 31.8919 36.8206ZM32.9669 33.154H31.8919H28.3086C27.7158 33.154 27.2336 32.6605 27.2336 32.054C27.2336 31.4474 27.7158 30.954 28.3086 30.954H32.9669C33.5597 30.954 34.0419 31.4474 34.0419 32.054C34.0419 32.6605 33.5597 33.154 32.9669 33.154ZM32.9669 29.4873H28.3086C27.7158 29.4873 27.2336 28.9938 27.2336 28.3873C27.2336 27.7807 27.7158 27.2873 28.3086 27.2873H32.9669C33.5597 27.2873 34.0419 27.7807 34.0419 28.3873C34.0419 28.9938 33.5597 29.4873 32.9669 29.4873Z" fill="#FAFAFA"/>
<path d="M10.748 10.2215C10.7333 10.011 10.6311 9.81692 10.4666 9.68941L9.72055 9.11072C9.5421 8.18626 8.74911 7.4873 7.80078 7.4873C6.73071 7.4873 5.8579 8.37748 5.84392 9.47711C5.2714 9.37472 4.72413 9.14986 4.2342 8.81216L3.98435 8.63955C3.76532 8.48812 3.48116 8.47162 3.24672 8.59977C3.013 8.72691 2.86671 8.97615 2.86671 9.24721V9.84882C2.86671 10.7326 3.12704 11.5755 3.60998 12.2834L3.07392 12.8384C2.87029 13.0486 2.81072 13.3634 2.92207 13.6366C3.03325 13.9094 3.29429 14.0873 3.58338 14.0873H7.05616C8.44121 14.0873 9.58618 13.007 9.74017 11.6206L10.5429 10.7895C10.6878 10.6394 10.7627 10.4325 10.748 10.2215ZM8.53142 10.7852C8.39848 10.9223 8.32422 11.1079 8.32422 11.3008C8.32422 12.0285 7.75518 12.6206 7.05608 12.6206H5.23296C5.34638 12.3535 5.29737 12.0312 5.08533 11.8118C4.75083 11.4652 4.51146 11.029 4.39034 10.5589C5.07413 10.8539 5.80899 11.0072 6.56068 11.0072C6.95682 11.0072 7.27735 10.6789 7.27735 10.2739V9.50397C7.27735 9.20065 7.5125 8.95397 7.80087 8.95397C8.08924 8.95397 8.3244 9.20065 8.3244 9.50397C8.3244 9.7335 8.42939 9.94975 8.60784 10.0883L8.94942 10.353L8.53142 10.7852Z" fill="#FAFAFA"/>
<path d="M23.6501 13.3539V11.8872H21.5001C21.104 11.8872 20.7834 12.2156 20.7834 12.6205V14.8205H19.3501V16.2872H20.7834V19.2205H22.2168V16.2872H23.6501V14.8205H22.2168V13.3539H23.6501Z" fill="#FAFAFA"/>
<path d="M25.7998 8.95361H17.1998C16.0143 8.95361 15.0498 9.9405 15.0498 11.1536V19.9536C15.0498 21.1667 16.0143 22.1536 17.1998 22.1536H25.7998C26.9854 22.1536 27.9498 21.1667 27.9498 19.9536V11.1536C27.9498 9.9405 26.9854 8.95361 25.7998 8.95361ZM26.5165 19.9536C26.5165 20.3579 26.1952 20.6869 25.7998 20.6869H17.1998C16.8044 20.6869 16.4831 20.3579 16.4831 19.9536V11.1536C16.4831 10.7494 16.8044 10.4203 17.1998 10.4203H25.7998C26.1952 10.4203 26.5165 10.7494 26.5165 11.1536V19.9536Z" fill="#FAFAFA"/>
<path d="M10.75 4.55396H2.15C0.964454 4.55396 0 5.54084 0 6.75396V15.554C0 16.7671 0.964454 17.754 2.15 17.754H10.75C11.9355 17.754 12.9 16.7671 12.9 15.554V6.75396C12.9 5.54084 11.9355 4.55396 10.75 4.55396ZM11.4667 15.554C11.4667 15.9582 11.1454 16.2873 10.75 16.2873H2.15C1.75458 16.2873 1.43333 15.9582 1.43333 15.554V6.75396C1.43333 6.34971 1.75458 6.02062 2.15 6.02062H10.75C11.1454 6.02062 11.4667 6.34971 11.4667 6.75396V15.554Z" fill="#FAFAFA"/>
<path d="M40.8501 0.887207H32.2501C31.0646 0.887207 30.1001 1.87409 30.1001 3.08721V11.8872C30.1001 13.1003 31.0646 14.0872 32.2501 14.0872H40.8501C42.0356 14.0872 43.0001 13.1003 43.0001 11.8872V3.08721C43.0001 1.87409 42.0356 0.887207 40.8501 0.887207ZM41.5668 11.8872C41.5668 12.2915 41.2455 12.6205 40.8501 12.6205H32.2501C31.8547 12.6205 31.5334 12.2915 31.5334 11.8872V8.22054H33.0392C33.3722 9.89199 34.8198 11.1539 36.5501 11.1539C38.2804 11.1539 39.728 9.89199 40.061 8.22054H41.5668V11.8872ZM34.4001 7.48721C34.4001 6.27409 35.3646 5.28721 36.5501 5.28721C37.7356 5.28721 38.7001 6.27409 38.7001 7.48721C38.7001 8.70032 37.7356 9.68721 36.5501 9.68721C35.3646 9.68721 34.4001 8.70032 34.4001 7.48721ZM41.5668 6.75387H40.061C39.728 5.08242 38.2804 3.82054 36.5501 3.82054C34.8198 3.82054 33.3722 5.08242 33.0392 6.75387H31.5334V3.08721C31.5334 2.68296 31.8547 2.35387 32.2501 2.35387H40.8501C41.2455 2.35387 41.5668 2.68296 41.5668 3.08721V6.75387Z" fill="#FAFAFA"/>
<path d="M22.2165 30.9536H20.7832V32.4203H22.2165V30.9536Z" fill="#FAFAFA"/>
</g>
<defs>
<clipPath id="clip0">
<rect width="43" height="44" fill="white" transform="translate(0 0.887207)"/>
</clipPath>
</defs>
</svg>
