<svg width="45" height="45" viewBox="0 0 45 45" fill="none" xmlns="http://www.w3.org/2000/svg">
<g clip-path="url(#clip0)">
<path d="M40.174 7.59743L26.7415 0.32367C25.4672 -0.366541 23.7152 0.164391 23.025 1.43863L15.1672 16.0392H5.61041C4.38927 16.0392 3.43359 16.9949 3.43359 18.2161V22.0388V41.8425C3.43359 43.0636 4.38927 44.0193 5.61041 44.0193H36.139C37.3601 44.0193 38.3158 43.0636 38.3158 41.8425V36.3208H39.2184C39.6962 36.3208 40.0679 35.9492 40.0679 35.4713V29.1532C40.0679 28.6754 39.6962 28.3038 39.2184 28.3038H38.3158V22.0919C38.3158 21.0831 37.5725 20.1805 36.6168 19.9681L41.289 11.314C41.9792 9.98662 41.5014 8.34073 40.174 7.59743ZM30.6173 4.35875L22.2286 19.915H19.8394L28.8121 3.40307L30.6173 4.35875ZM24.5647 2.23502C24.8301 1.75719 25.4672 1.54481 25.9451 1.81028L27.2724 2.55358L17.928 19.915H15.0079L24.5647 2.23502ZM5.07948 18.163C5.07948 18.0037 5.29185 17.7382 5.55732 17.7382H14.2115L13.0435 19.8619H5.55732C5.39804 19.8619 5.23876 19.8619 5.07948 19.915V18.163ZM36.5637 41.8425C36.5637 42.108 36.3513 42.3203 36.0859 42.3203H5.55732C5.29185 42.3203 5.07948 42.108 5.07948 41.8425V22.0919C5.07948 21.8264 5.29185 21.614 5.55732 21.614H13.5744H16.9723H23.1842H35.1302H36.0328C36.2982 21.614 36.5106 21.8264 36.5106 22.0919V28.3038H33.2719C31.8384 28.3038 30.7235 29.4718 30.7235 30.8522V33.7724C30.7235 35.2059 31.8915 36.3208 33.2719 36.3208H36.5637V41.8425ZM38.2627 30.0027H38.3158V34.6218H38.2627H33.2719C32.7941 34.6218 32.4224 34.2502 32.4224 33.7724V30.8522C32.4224 30.3744 32.7941 30.0027 33.2719 30.0027H38.2627ZM39.7493 10.4645L34.6524 19.915H24.1399L32.1039 5.20824L39.3245 9.13713C39.8555 9.3495 40.0148 9.98662 39.7493 10.4645Z" fill="#FAFAFA"/>
<path d="M36.5105 9.66841L36.0857 9.45604C35.0239 8.87202 33.5903 9.29676 33.0063 10.3586L32.4754 11.3674C32.2099 11.8983 32.1037 12.5354 32.3161 13.1195C32.4754 13.7035 32.9001 14.1813 33.4311 14.4468L33.8558 14.6592C34.1744 14.8184 34.546 14.9246 34.9177 14.9246C35.7672 14.9246 36.5105 14.4468 36.9352 13.7566L37.4661 12.7478C37.9971 11.6329 37.5723 10.2524 36.5105 9.66841ZM35.9264 11.9514L35.3955 12.9602C35.2362 13.2256 34.8646 13.3318 34.5991 13.1726L34.1744 12.9071C34.0682 12.854 33.962 12.6947 33.9089 12.5885C33.8558 12.4293 33.8558 12.27 33.962 12.1638L34.4929 11.155C34.5991 10.9957 34.8115 10.8365 35.0239 10.8365C35.13 10.8365 35.1831 10.8365 35.2893 10.8896L35.7141 11.1019C35.9264 11.3143 36.0326 11.6329 35.9264 11.9514Z" fill="#FAFAFA"/>
</g>
<defs>
<clipPath id="clip0">
<rect width="44" height="44" fill="white" transform="translate(0.518555 0.0195312)"/>
</clipPath>
</defs>
</svg>
