<svg width="35" height="35" viewBox="0 0 35 35" fill="none" xmlns="http://www.w3.org/2000/svg">
<g clip-path="url(#clip0)">
<path d="M33.7882 0.826904H8.64516C8.24173 0.826904 7.91483 1.1538 7.91483 1.55723V16.0765H1.24888C0.84545 16.0765 0.518555 16.4033 0.518555 16.8068V29.1857C0.518555 31.6275 2.50505 33.6143 4.94697 33.6143C5.00988 33.6143 30.09 33.6143 30.09 33.6143C32.5319 33.6143 34.5187 31.6276 34.5187 29.1857V1.55723C34.5186 1.1538 34.1917 0.826904 33.7882 0.826904ZM1.97921 29.1857V17.5371H7.91483V29.1857C7.91483 30.8221 6.58349 32.1536 4.94688 32.1536C3.31055 32.1536 1.97921 30.8221 1.97921 29.1857ZM33.0579 29.1857C33.0579 30.8221 31.7266 32.1536 30.0899 32.1536H8.23112C8.94187 31.3678 9.37549 30.3262 9.37549 29.1857V2.28756H33.0579V29.1857Z" fill="#FAFAFA"/>
<path d="M20.1908 9.26267H29.5513C29.9548 9.26267 30.2817 8.93577 30.2817 8.53233C30.2817 8.1289 29.9548 7.802 29.5513 7.802H20.1908C19.7873 7.802 19.4604 8.1289 19.4604 8.53233C19.4604 8.93577 19.7874 9.26267 20.1908 9.26267Z" fill="#FAFAFA"/>
<path d="M20.1908 17.2856H29.5513C29.9548 17.2856 30.2817 16.9587 30.2817 16.5553C30.2817 16.1518 29.9548 15.825 29.5513 15.825H20.1908C19.7873 15.825 19.4604 16.1518 19.4604 16.5553C19.4604 16.9587 19.7874 17.2856 20.1908 17.2856Z" fill="#FAFAFA"/>
<path d="M20.1908 25.309H29.5513C29.9548 25.309 30.2817 24.9821 30.2817 24.5787C30.2817 24.1753 29.9548 23.8484 29.5513 23.8484H20.1908C19.7873 23.8484 19.4604 24.1753 19.4604 24.5787C19.4604 24.9821 19.7874 25.309 20.1908 25.309Z" fill="#FAFAFA"/>
<path d="M13.4516 10.0842C13.5897 10.2303 13.7818 10.3131 13.9826 10.3131C13.9846 10.3131 13.9866 10.3131 13.9888 10.3131C14.1919 10.3113 14.3851 10.2252 14.5221 10.0752L18.5338 5.68142C18.8057 5.38355 18.7846 4.92159 18.4868 4.64961C18.1889 4.37784 17.727 4.39877 17.455 4.69655L13.9736 8.50945L12.8899 7.36186C12.6127 7.06856 12.1504 7.05551 11.8573 7.33236C11.564 7.6093 11.5509 8.07145 11.8278 8.36475L13.4516 10.0842Z" fill="#FAFAFA"/>
<path d="M17.455 13.0685L13.9736 16.8812L12.8897 15.7338C12.6127 15.4403 12.1504 15.4273 11.8573 15.7043C11.564 15.9813 11.5509 16.4434 11.8278 16.7367L13.4516 18.456C13.5897 18.6021 13.7818 18.6848 13.9826 18.6848C13.9846 18.6848 13.9866 18.6848 13.9888 18.6848C14.1919 18.6831 14.3851 18.597 14.5221 18.447L18.5337 14.0534C18.8055 13.7555 18.7846 13.2936 18.4868 13.0216C18.189 12.7496 17.727 12.7705 17.455 13.0685Z" fill="#FAFAFA"/>
<path d="M17.455 21.4403L13.9736 25.253L12.8897 24.1056C12.6127 23.8121 12.1504 23.799 11.8573 24.0761C11.564 24.3531 11.5509 24.8152 11.8278 25.1085L13.4516 26.8278C13.5897 26.9739 13.7818 27.0566 13.9826 27.0566C13.9846 27.0566 13.9866 27.0566 13.9888 27.0566C14.1919 27.0549 14.3851 26.9688 14.5221 26.8187L18.5337 22.4252C18.8055 22.1273 18.7846 21.6654 18.4868 21.3934C18.1889 21.1214 17.727 21.1424 17.455 21.4403Z" fill="#FAFAFA"/>
</g>
<defs>
<clipPath id="clip0">
<rect width="34" height="34" fill="white" transform="translate(0.518555 0.220703)"/>
</clipPath>
</defs>
</svg>
