<svg width="76" height="36" viewBox="0 0 76 36" fill="none" xmlns="http://www.w3.org/2000/svg">
<g clip-path="url(#clip0)">
<path d="M15.539 11.0237V26.1787H13.4204V11.0237H15.539ZM21.3525 13.6563C21.3525 14.3278 21.6135 14.9535 22.1354 15.5335C22.6727 16.0982 23.3175 16.6019 24.0697 17.0444C24.8373 17.4718 25.5972 17.9144 26.3494 18.3722C27.1016 18.8148 27.7388 19.3642 28.2607 20.0205C28.7981 20.6768 29.0666 21.4017 29.0666 22.1953C29.0666 23.4468 28.5984 24.4693 27.662 25.2629C26.7409 26.0565 25.4897 26.4534 23.9085 26.4534C22.3273 26.4534 20.7615 26.1558 19.2109 25.5605V24.4846C20.7768 25.2629 22.1047 25.6521 23.1947 25.6521C24.3 25.6521 25.1597 25.385 25.7737 24.8509C26.3878 24.3167 26.6948 23.5765 26.6948 22.6303C26.6948 21.9893 26.4415 21.4093 25.9349 20.8904C25.4283 20.3563 24.8143 19.8984 24.0927 19.5169C23.3712 19.12 22.6497 18.7156 21.9282 18.3035C21.2067 17.8915 20.5926 17.3725 20.0859 16.7468C19.5794 16.1058 19.3261 15.3351 19.3261 14.4347C19.3261 13.5342 19.7252 12.6948 20.5234 11.9165C21.3372 11.1381 22.5423 10.7489 24.1388 10.7489C25.1828 10.7489 26.503 10.9855 28.0995 11.4586L27.8692 13.0153C25.7967 12.1301 24.0236 11.6875 22.5499 11.6875C21.7516 12.0691 21.3525 12.7253 21.3525 13.6563ZM34.6085 11.0237V26.1787H32.49V11.0237H34.6085ZM38.7641 26.1787V11.0237H43.1163C44.9278 11.0237 45.5495 11.2909 47.0079 12.054C47.5325 12.3285 48.3358 13.0611 48.9192 13.6563C49.5026 14.2515 49.9708 15.0146 50.3238 15.9456C50.677 16.8613 50.8535 17.8839 50.8535 19.0132C50.8535 20.631 50.4467 21.9969 49.633 23.111C48.144 25.1562 46.8851 26.1787 43.5538 26.1787H38.7641ZM43.0478 25.1943C44.9487 24.9882 45.6498 24.6416 46.6395 23.6833C47.8216 22.5387 48.4126 20.8599 48.4126 18.6469C48.4126 16.9376 47.9444 15.4801 47.0079 14.2744C46.0715 13.0535 44.926 12.3278 44.5058 12.1683C44.2047 12.054 42.0187 12.008 41.0208 12.3285V25.1943C41.5121 25.3316 42.1574 25.1943 43.0478 25.1943ZM51.3682 26.1787L57.8248 10.7489L64.3709 26.1787H61.8606L60.1339 22.0579H54.2988L52.5923 26.1787H51.3682ZM54.6884 21.188H59.7656L57.2112 15.288L54.6884 21.188Z" fill="white"/>
<path d="M17.2406 11.9927H11.6792V11.0256H17.2406V11.9927Z" fill="white"/>
<path d="M17.2406 26.1681H11.6792V25.2011H17.2406V26.1681Z" fill="white"/>
<path d="M36.2391 11.9927H30.6777V11.0256H36.2391V11.9927Z" fill="white"/>
<path d="M36.2391 26.1681H30.6777V25.2011H36.2391V26.1681Z" fill="white"/>
<path d="M40.9763 2.56723H0.949707V34.635H75.1002V2.56723H71.9485" stroke="#E13436" stroke-width="2" stroke-linecap="round"/>
<path d="M47.9484 2.83495H48.5288V4.3994C48.1857 4.53424 47.7728 4.60165 47.2902 4.60165C46.7038 4.60165 46.1992 4.44699 45.7763 4.13766C45.569 3.98301 45.4034 3.78076 45.2797 3.53093C45.1561 3.27713 45.0942 2.99755 45.0942 2.69219C45.0942 2.38684 45.1421 2.1132 45.2379 1.8713C45.3336 1.62543 45.4572 1.4212 45.6088 1.25861C45.7644 1.09601 45.9439 0.957221 46.1473 0.842215C46.5263 0.628068 46.9432 0.520996 47.3979 0.520996C47.5734 0.520996 47.7629 0.540824 47.9663 0.580481C48.1698 0.620137 48.3253 0.661776 48.433 0.705399L48.3732 1.10395C47.8347 0.877904 47.3879 0.764882 47.0329 0.764882C46.63 0.867993 46.3109 1.08015 46.0755 1.40137C45.8442 1.72259 45.7285 2.11519 45.7285 2.57917C45.7285 3.15815 45.8821 3.60628 46.1892 3.92353C46.4964 4.23682 46.9012 4.39345 47.4039 4.39345C47.6033 4.39345 47.7848 4.37364 47.9484 4.33396V2.83495ZM51.2122 2.65055V4.53026H50.6258V0.592377H51.9183C52.3212 0.592377 52.6503 0.681604 52.9055 0.860059C53.1648 1.03851 53.2945 1.27447 53.2945 1.56793C53.2945 1.85742 53.1908 2.08743 52.9833 2.25795C52.7799 2.42451 52.5026 2.53951 52.1516 2.60296L53.7552 4.53026L53.0611 4.61354L51.6729 2.65055H51.2122ZM51.2122 2.4721H51.5951C52.3132 2.4721 52.6722 2.19054 52.6722 1.62741C52.6722 1.53224 52.6482 1.42516 52.6004 1.3062C52.5086 1.05636 52.3132 0.891787 52.014 0.812471C51.7427 0.812471 51.4755 0.846176 51.2122 0.913598V2.4721ZM57.36 0.520996C57.8786 0.520996 58.3077 0.691519 58.6464 1.03256C58.9856 1.36964 59.1549 1.83958 59.1549 2.44236C59.1549 2.83099 59.0873 3.17204 58.9515 3.46549C58.8163 3.75499 58.6386 3.97905 58.4189 4.13766C57.9926 4.44699 57.5215 4.60165 57.0073 4.60165C56.4927 4.60165 56.0657 4.43111 55.7266 4.09009C55.3916 3.74508 55.224 3.27118 55.224 2.6684C55.224 2.35511 55.2679 2.07355 55.3557 1.82371C55.4474 1.56991 55.5651 1.3637 55.7087 1.20507C55.8563 1.04644 56.0261 0.913598 56.2172 0.806526C56.5681 0.616171 56.9492 0.520996 57.36 0.520996ZM56.1574 3.85215C56.2613 4.02663 56.401 4.16343 56.5765 4.26259C56.752 4.35776 56.9531 4.40535 57.1806 4.40535C57.4119 4.40535 57.6176 4.34783 57.797 4.23284C57.9763 4.11784 58.1161 3.96715 58.2155 3.78076C58.4189 3.40799 58.5212 3.00746 58.5212 2.57917C58.5212 2.05174 58.415 1.62741 58.2038 1.3062C57.9685 0.945321 57.5796 0.764882 57.037 0.764882C56.6503 0.899715 56.3569 1.1317 56.1574 1.46086C55.9579 1.79 55.8583 2.16278 55.8583 2.57917C55.8583 3.08678 55.9579 3.5111 56.1574 3.85215ZM63.9563 0.592377V3.00746C63.9563 3.37627 63.9166 3.65386 63.8367 3.84025C63.801 3.92353 63.7428 4.0187 63.6629 4.12578C63.5875 4.22886 63.4975 4.31214 63.3941 4.3756C63.1304 4.52629 62.8018 4.60165 62.4067 4.60165C61.4176 4.60165 60.9225 4.09603 60.9225 3.08479V0.592377H61.5333V3.13238C61.5333 3.24738 61.5349 3.34058 61.5388 3.41196C61.5428 3.48334 61.5629 3.58446 61.5986 3.71533C61.6389 3.8462 61.6903 3.95129 61.7546 4.0306C61.8222 4.10991 61.9261 4.18128 62.0658 4.24474C62.2089 4.3082 62.3788 4.33991 62.5743 4.33991C63.3198 4.33991 63.6931 3.94335 63.6931 3.15023V0.592377H63.9563ZM68.7253 1.61552C68.7253 1.99622 68.5834 2.28571 68.3006 2.484C68.0212 2.67831 67.6401 2.77547 67.1578 2.77547H66.6431V4.53026H66.0625V0.592377H67.3489C67.7518 0.592377 68.081 0.683587 68.3364 0.866009C68.5957 1.04843 68.7253 1.29826 68.7253 1.61552ZM66.6431 2.60296H67.1757C67.3629 2.60296 67.5227 2.56728 67.6541 2.49589C67.7898 2.42451 67.8876 2.3333 67.9474 2.22226C68.0553 2.02398 68.1089 1.83164 68.1089 1.64526C68.1089 1.55405 68.0849 1.44499 68.0374 1.31809C67.9413 1.05636 67.744 0.885837 67.4445 0.806526C67.1578 0.806526 66.8901 0.840232 66.6431 0.907648V2.60296Z" fill="white"/>
</g>
<defs>
<clipPath id="clip0">
<rect width="76" height="35" fill="white" transform="translate(0 0.207977)"/>
</clipPath>
</defs>
</svg>
