<svg width="44" height="38" viewBox="0 0 44 38" fill="none" xmlns="http://www.w3.org/2000/svg">
<path d="M41.6508 0.666656H2.95078C1.76391 0.66799 0.802085 1.65218 0.800781 2.86666V29.2667C0.802085 30.4811 1.76391 31.4653 2.95078 31.4667H25.1674V35.8667C25.1669 36.4066 25.457 36.9031 25.922 37.1582C26.3871 37.4133 26.9517 37.3857 27.3909 37.0863L30.182 35.1869L32.9759 37.0855C33.4151 37.3851 33.9798 37.413 34.4452 37.1581C34.9105 36.9031 35.2009 36.4068 35.2008 35.8667V31.4667H41.6508C42.8377 31.4653 43.7995 30.4811 43.8008 29.2667V2.86666C43.7995 1.65218 42.8377 0.66799 41.6508 0.666656ZM39.5008 13.954C39.3512 13.8694 39.2006 13.789 39.0536 13.712C38.6787 13.5549 38.3368 13.3255 38.0464 13.0363C37.8669 12.6476 37.7605 12.2278 37.7329 11.7988C37.7228 10.9393 37.3809 10.1187 36.7818 9.51608C36.0573 9.10357 35.1988 9.0141 34.4079 9.26866C34.0106 9.37248 33.5973 9.39536 33.1915 9.33598C32.847 9.13559 32.5418 8.87177 32.2911 8.55784C31.792 7.84952 31.03 7.38257 30.1841 7.26666C29.3383 7.38226 28.5762 7.84905 28.0771 8.55732C27.8266 8.87139 27.5215 9.13531 27.1771 9.33576C26.7713 9.39509 26.358 9.37222 25.9607 9.26844C25.1695 9.01359 24.3107 9.10321 23.5861 9.51623C22.9875 10.1187 22.6459 10.9388 22.6357 11.7979C22.6081 12.2271 22.5017 12.6471 22.3221 13.0361C22.0317 13.3251 21.6898 13.5545 21.315 13.7118C20.5195 13.9955 19.8702 14.5966 19.515 15.3782C19.3727 16.209 19.5535 17.0639 20.0188 17.7601C20.2452 18.1398 20.3978 18.5606 20.4682 18.9995C20.3978 19.4383 20.2452 19.8592 20.0188 20.2388C19.5532 20.9351 19.3723 21.7902 19.515 22.6211C19.8703 23.4024 20.5193 24.0034 21.3143 24.2875C21.6892 24.4447 22.0311 24.6741 22.3214 24.9632C22.501 25.3519 22.6074 25.7717 22.635 26.2007C22.6762 26.4828 22.721 26.7773 22.788 27.0645L7.88861 27.0419C7.59531 25.6124 6.49961 24.498 5.10078 24.2067L5.12529 7.91866C6.522 7.61845 7.61079 6.49763 7.89578 5.06666L36.7129 5.09137C37.0063 6.52092 38.102 7.63527 39.5008 7.92666V13.954ZM24.4431 27.308C24.4359 27.3027 24.4305 27.2933 24.4238 27.287L24.4166 27.2788C24.1976 26.8825 24.0732 26.439 24.0535 25.9842C24.01 25.3246 23.8171 24.6844 23.4902 24.1142C23.0781 23.6182 22.5562 23.2302 21.968 22.9824C21.4997 22.7374 20.9692 22.4596 20.8817 22.1774C20.8005 21.9164 21.0777 21.3516 21.3002 20.8976C21.6418 20.3213 21.8478 19.6717 21.9019 19C21.8476 18.3282 21.6415 17.6785 21.2999 17.1022C21.0774 16.6486 20.8002 16.0835 20.8813 15.8225C20.9689 15.5406 21.4993 15.2628 21.9682 15.0178C22.5563 14.7702 23.078 14.3823 23.4898 13.8864C23.8173 13.3158 24.0104 12.6749 24.0539 12.0147C24.1288 11.5005 24.2225 10.8603 24.443 10.692C24.6516 10.533 25.2471 10.634 25.7266 10.7156C26.3511 10.8771 27.0046 10.8812 27.6309 10.7274C28.2073 10.4693 28.7148 10.0737 29.1111 9.57372C29.4632 9.19921 29.9007 8.73332 30.1841 8.73332C30.4676 8.73332 30.9057 9.1995 31.2577 9.57409C31.654 10.074 32.1616 10.4694 32.738 10.7274C33.3641 10.8814 34.0173 10.8773 34.6416 10.7156C35.121 10.6349 35.718 10.5334 35.9251 10.692C36.1463 10.8607 36.2404 11.5012 36.315 12.0158C36.3585 12.6754 36.5514 13.3156 36.8784 13.8858C37.2904 14.3818 37.8123 14.7698 38.4006 15.0176C38.8688 15.2626 39.3993 15.5404 39.4868 15.8226C39.568 16.0836 39.2908 16.6483 39.0683 17.1023C38.7266 17.6786 38.5206 18.3283 38.4663 19C38.5207 19.6718 38.7267 20.3214 39.0683 20.8978C39.2905 21.3514 39.5681 21.9165 39.4869 22.1775C39.3994 22.4593 38.8689 22.7372 38.4 22.9821C37.8119 23.2297 37.2902 23.6177 36.8784 24.1136C36.5509 24.6842 36.3578 25.325 36.3143 25.9853C36.2394 26.4995 36.1457 27.1397 35.9252 27.308C35.716 27.4663 35.1204 27.366 34.6416 27.2844C34.0171 27.1235 33.3637 27.1195 32.7373 27.2726C32.161 27.5307 31.6534 27.9263 31.2571 28.4263C30.905 28.8008 30.4676 29.2667 30.1841 29.2667C29.9007 29.2667 29.4626 28.8005 29.1105 28.4259C28.7142 27.926 28.2066 27.5306 27.6303 27.2726C27.3817 27.1914 27.122 27.152 26.8611 27.1558C26.4802 27.1672 26.1008 27.2102 25.7267 27.2844C25.2463 27.3645 24.6495 27.4659 24.4431 27.308ZM30.9883 33.9747C30.5106 33.6324 29.8756 33.6285 29.394 33.965L26.6008 35.8667V28.6389C26.7926 28.6095 26.9881 28.6181 27.1768 28.664C27.5212 28.8644 27.8264 29.1282 28.0771 29.4421C28.5763 30.1505 29.3382 30.6174 30.1841 30.7333C31.03 30.6177 31.792 30.1509 32.2911 29.4427C32.5416 29.1286 32.8468 28.8647 33.1911 28.6642C33.3799 28.6183 33.5755 28.6097 33.7674 28.6389L33.7694 35.8645L30.9883 33.9747ZM42.3674 29.2667C42.3671 29.6715 42.0464 29.9996 41.6508 30H35.2008V28.8409C35.7529 28.9285 36.3171 28.801 36.7818 28.4835C37.3804 27.8811 37.722 27.061 37.7322 26.2019C37.7598 25.7727 37.8662 25.3526 38.0457 24.9637C38.3361 24.6746 38.678 24.4453 39.0529 24.288C39.8483 24.0043 40.4977 23.4032 40.8529 22.6216C40.9952 21.7907 40.8144 20.9359 40.349 20.2396C40.1227 19.86 39.9701 19.4391 39.8997 19.0003C39.9701 18.5614 40.1227 18.1406 40.349 17.761C40.6731 17.2072 40.8719 16.5862 40.931 15.9435C40.931 15.9379 40.9341 15.9332 40.9341 15.9276V7.92666C40.9338 7.22191 40.4451 6.61639 39.7688 6.48294C38.9384 6.30668 38.2895 5.64285 38.1171 4.7932C37.9866 4.10093 37.3948 3.60055 36.7058 3.59999H7.89578C7.20673 3.60026 6.61464 4.10048 6.48395 4.79276C6.31182 5.64219 5.66347 6.30611 4.83346 6.48287C4.15686 6.61599 3.66773 7.22164 3.66745 7.92666V24.2067C3.66773 24.9114 4.15647 25.5169 4.83275 25.6504C5.66314 25.8266 6.31204 26.4905 6.48445 27.3402C6.61495 28.0324 7.20681 28.5328 7.89578 28.5333H23.6655C24.1169 28.8088 24.6472 28.9173 25.1674 28.8406V30H2.95078C2.55512 29.9996 2.23447 29.6715 2.23411 29.2667V2.86666C2.23447 2.4618 2.55512 2.13369 2.95078 2.13332H41.6508C42.0464 2.13369 42.3671 2.4618 42.3674 2.86666V29.2667Z" fill="#EDDA36"/>
<path d="M30.1842 26.3333C34.1423 26.3333 37.3509 23.0501 37.3509 19C37.3509 14.9499 34.1423 11.6667 30.1842 11.6667C26.2262 11.6667 23.0176 14.9499 23.0176 19C23.0221 23.0482 26.2281 26.3287 30.1842 26.3333ZM30.1842 13.1333C33.3507 13.1333 35.9176 15.7599 35.9176 19C35.9176 22.2401 33.3507 24.8667 30.1842 24.8667C27.0178 24.8667 24.4509 22.2401 24.4509 19C24.4545 15.7615 27.0193 13.137 30.1842 13.1333Z" fill="#EDDA36"/>
<path d="M18.0009 16.0667C18.0009 15.6616 17.68 15.3333 17.2842 15.3333H10.1175C9.72174 15.3333 9.40088 15.6616 9.40088 16.0667C9.40088 16.4717 9.72174 16.8 10.1175 16.8H17.2842C17.68 16.8 18.0009 16.4717 18.0009 16.0667Z" fill="#EDDA36"/>
<path d="M18.7175 12.4H10.1175C9.72174 12.4 9.40088 12.7283 9.40088 13.1333C9.40088 13.5383 9.72174 13.8667 10.1175 13.8667H18.7175C19.1134 13.8667 19.4342 13.5383 19.4342 13.1333C19.4342 12.7283 19.1134 12.4 18.7175 12.4Z" fill="#EDDA36"/>
<path d="M18.0006 18.2666H13.7006C13.3047 18.2666 12.9839 18.595 12.9839 19C12.9839 19.405 13.3047 19.7333 13.7006 19.7333H18.0006C18.3964 19.7333 18.7172 19.405 18.7172 19C18.7172 18.595 18.3964 18.2666 18.0006 18.2666Z" fill="#EDDA36"/>
</svg>
