<svg width="57" height="59" viewBox="0 0 57 59" fill="none" xmlns="http://www.w3.org/2000/svg">
<path d="M49.297 27.3287C50.9662 26.1352 52.0714 24.1498 52.0714 21.912C52.0714 18.2511 49.1617 15.2903 45.5639 15.2903C41.9662 15.2903 39.0564 18.2511 39.0564 21.912C39.0564 24.1498 40.1504 26.1352 41.8308 27.3287C40.3985 27.8337 39.0902 28.614 37.985 29.6239C36.4624 28.3042 34.6692 27.2943 32.7068 26.6975C35.0865 25.2286 36.688 22.5547 36.688 19.5135C36.688 14.8772 33 11.1245 28.4436 11.1245C23.8872 11.1245 20.1992 14.8887 20.1992 19.5135C20.1992 22.5547 21.7895 25.2286 24.1805 26.6975C22.2406 27.2943 20.4699 28.2927 18.9586 29.5895C17.8534 28.6026 16.5677 27.8337 15.1579 27.3402C16.8271 26.1467 17.9323 24.1613 17.9323 21.9235C17.9323 18.2626 15.0226 15.3018 11.4248 15.3018C7.82707 15.3018 4.91729 18.2626 4.91729 21.9235C4.91729 24.1613 6.01128 26.1467 7.69173 27.3402C3.21429 28.9124 0 33.2389 0 38.3228V39.0802C0 39.1031 0.0225564 39.1261 0.0451128 39.1261H13.8383C13.7594 39.7573 13.7143 40.4114 13.7143 41.0656V41.8459C13.7143 45.2199 16.3985 47.9512 19.7143 47.9512H37.1955C40.5113 47.9512 43.1955 45.2199 43.1955 41.8459V41.0656C43.1955 40.4114 43.1504 39.7573 43.0714 39.1261H56.9549C56.9774 39.1261 57 39.1031 57 39.0802V38.3228C56.9774 33.2274 53.7744 28.9009 49.297 27.3287ZM40.8609 21.9005C40.8609 19.261 42.9699 17.115 45.5639 17.115C48.1579 17.115 50.2669 19.261 50.2669 21.9005C50.2669 24.5056 48.203 26.6287 45.6541 26.686C45.6203 26.686 45.5977 26.686 45.5639 26.686C45.5301 26.686 45.5075 26.686 45.4737 26.686C42.9135 26.6401 40.8609 24.5171 40.8609 21.9005ZM21.9812 19.5135C21.9812 15.8986 24.8684 12.9607 28.4211 12.9607C31.9737 12.9607 34.8609 15.8986 34.8609 19.5135C34.8609 23.0022 32.1654 25.8598 28.7932 26.0549C28.6692 26.0549 28.5451 26.0549 28.4211 26.0549C28.297 26.0549 28.1729 26.0549 28.0489 26.0549C24.6767 25.8598 21.9812 23.0022 21.9812 19.5135ZM6.68797 21.9005C6.68797 19.261 8.79699 17.115 11.391 17.115C13.985 17.115 16.094 19.261 16.094 21.9005C16.094 24.5056 14.0301 26.6287 11.4812 26.686C11.4474 26.686 11.4248 26.686 11.391 26.686C11.3571 26.686 11.3346 26.686 11.3008 26.686C8.75188 26.6401 6.68797 24.5171 6.68797 21.9005ZM14.1541 37.2785H1.82707C2.33459 32.3897 6.39474 28.5566 11.3233 28.5222C11.3459 28.5222 11.3684 28.5222 11.391 28.5222C11.4135 28.5222 11.4361 28.5222 11.4586 28.5222C13.8045 28.5337 15.9474 29.4174 17.6053 30.8519C15.9812 32.6421 14.7744 34.8455 14.1541 37.2785ZM41.3684 41.8459C41.3684 44.1985 39.485 46.115 37.1729 46.115H19.6917C17.3797 46.115 15.4962 44.1985 15.4962 41.8459V41.0656C15.4962 33.9389 21.0902 28.1091 28.0489 27.9025C28.1729 27.914 28.3083 27.914 28.4323 27.914C28.5564 27.914 28.6917 27.914 28.8158 27.9025C35.7744 28.1091 41.3684 33.9389 41.3684 41.0656V41.8459ZM42.7105 37.2785C42.0902 34.857 40.906 32.688 39.2932 30.8978C40.9624 29.4288 43.1278 28.5452 45.4962 28.5222C45.5188 28.5222 45.5414 28.5222 45.5639 28.5222C45.5865 28.5222 45.609 28.5222 45.6316 28.5222C50.5602 28.5566 54.6203 32.3897 55.1278 37.2785H42.7105Z" fill="white"/>
</svg>
