<svg width="46" height="47" viewBox="0 0 46 47" fill="none" xmlns="http://www.w3.org/2000/svg">
<g clip-path="url(#clip0)">
<path d="M45.2455 39.8081L36.303 30.8656C35.9521 30.5147 35.3834 30.5147 35.0324 30.8656L34.6386 31.2594L32.1574 28.7781C33.6051 26.7957 34.641 24.5244 35.1689 22.1167C35.2753 21.632 34.9686 21.1529 34.4839 21.0466C33.9989 20.9407 33.52 21.2471 33.4138 21.7318C31.819 29.0039 25.2494 34.2821 17.7925 34.2821C8.97428 34.2821 1.79989 27.1078 1.79989 18.2894C1.79989 9.47108 8.9741 2.29688 17.7924 2.29688C25.4647 2.29688 32.072 7.75812 33.5029 15.2824C33.5956 15.7698 34.0658 16.09 34.5533 15.9972C35.0408 15.9045 35.3608 15.4342 35.2681 14.9468C33.6762 6.57577 26.3265 0.5 17.7924 0.5C7.98321 0.5 0.00292969 8.48028 0.00292969 18.2895C0.00292969 28.0987 7.98321 36.079 17.7924 36.079C21.56 36.079 25.2471 34.8706 28.2767 32.6609L30.7569 35.1411L30.3631 35.5349C30.0123 35.8858 30.0123 36.4547 30.3631 36.8056L39.3056 45.7481C39.8069 46.2493 40.4654 46.5 41.124 46.5C41.7823 46.5 42.4408 46.2493 42.9421 45.7481L45.2455 43.4447C46.248 42.4421 46.248 40.8107 45.2455 39.8081ZM29.6798 31.5229C30.1509 31.099 30.598 30.6511 31.0194 30.1817L33.3679 32.5302L32.0276 33.8706L29.6798 31.5229ZM43.9748 42.1741L41.6714 44.4775C41.3693 44.7796 40.8781 44.7794 40.5762 44.4775L32.2691 36.1704L35.6677 32.7717L43.9748 41.0787C44.2768 41.3808 44.2768 41.8722 43.9748 42.1741Z" fill="#E03435"/>
<path d="M12.7509 13.4375H8.93028C8.43416 13.4375 8.03184 13.8397 8.03184 14.3359C8.03184 14.8321 8.43416 15.2344 8.93028 15.2344H9.9421V20.0137C9.9421 20.5716 9.48821 21.0255 8.93028 21.0255C8.37235 21.0255 7.91846 20.5716 7.91846 20.0137C7.91846 19.5175 7.51614 19.1153 7.02002 19.1153C6.5239 19.1153 6.12158 19.5175 6.12158 20.0137C6.12158 21.5624 7.38155 22.8225 8.93037 22.8225C10.4792 22.8225 11.7392 21.5625 11.7392 20.0137V15.2344H12.751C13.2471 15.2344 13.6494 14.8321 13.6494 14.3359C13.6494 13.8397 13.2471 13.4375 12.7509 13.4375Z" fill="#E03435"/>
<path d="M18.0201 13.4375C15.4326 13.4375 13.3276 15.5425 13.3276 18.1299C13.3276 20.7174 15.4328 22.8225 18.0202 22.8225C20.6076 22.8225 22.7127 20.7174 22.7127 18.1299C22.7127 15.5425 20.6076 13.4375 18.0201 13.4375ZM18.0201 21.0256C16.4235 21.0256 15.1244 19.7267 15.1244 18.1299C15.1244 16.5333 16.4234 15.2344 18.0201 15.2344C19.6168 15.2344 20.9158 16.5333 20.9158 18.1299C20.9158 19.7266 19.6167 21.0256 18.0201 21.0256Z" fill="#E03435"/>
<path d="M29.4627 16.3126C29.4628 14.7273 28.173 13.4375 26.5877 13.4375H24.7437C24.2475 13.4375 23.8452 13.8397 23.8452 14.3359V18.2892V22.2424C23.8452 22.7386 24.2475 23.1408 24.7437 23.1408H26.5876C28.1729 23.1408 29.4627 21.8511 29.4627 20.2657C29.4627 19.5005 29.1616 18.8049 28.6725 18.2891C29.1616 17.7735 29.4627 17.0779 29.4627 16.3126ZM26.5877 21.344H25.6422V19.1877H26.5876C27.1821 19.1877 27.6657 19.6713 27.6657 20.2658C27.6658 20.8604 27.1822 21.344 26.5877 21.344ZM26.5876 17.3908H25.6422V15.2345H26.5876C27.1821 15.2345 27.6657 15.7181 27.6657 16.3126C27.6657 16.9071 27.1821 17.3908 26.5876 17.3908Z" fill="#E03435"/>
<path d="M34.6833 17.3906C34.1872 17.3906 33.7849 17.7929 33.7849 18.2892L33.7847 18.353C33.7828 18.8492 34.1834 19.2531 34.6796 19.255C34.6809 19.255 34.6819 19.255 34.6832 19.255C35.1777 19.255 35.5797 18.855 35.5815 18.36L35.5817 18.2891C35.5817 17.7929 35.1794 17.3906 34.6833 17.3906Z" fill="#E03435"/>
<path d="M27.1875 8.89402C22.007 3.71371 13.5779 3.71371 8.39741 8.89402C8.04657 9.24486 8.04657 9.81375 8.39741 10.1646C8.74825 10.5155 9.31696 10.5155 9.66807 10.1646C14.1479 5.68489 21.437 5.68489 25.9169 10.1646C26.0924 10.3401 26.3223 10.4277 26.5522 10.4277C26.7822 10.4277 27.012 10.34 27.1875 10.1646C27.5383 9.81384 27.5383 9.24486 27.1875 8.89402Z" fill="#E03435"/>
<path d="M9.68595 26.4314L9.66816 26.4135C9.31705 26.0627 8.74834 26.0627 8.39741 26.4135C8.04657 26.7644 8.04657 27.3332 8.39741 27.6842C8.39822 27.6849 8.40495 27.6916 8.40567 27.6924L8.4098 27.6964C8.58554 27.8731 8.81653 27.9616 9.0477 27.9616C9.27644 27.9616 9.50536 27.8748 9.68038 27.7011C10.0324 27.3518 10.0351 26.7836 9.68595 26.4314Z" fill="#E03435"/>
<path d="M27.1874 26.4135C26.8366 26.0627 26.2679 26.0626 25.9168 26.4135C22.2603 30.0699 16.5757 30.8329 12.0932 28.2692C11.6624 28.0229 11.1137 28.1723 10.8672 28.6031C10.6209 29.0338 10.7704 29.5826 11.2011 29.829C13.252 31.0019 15.52 31.5728 17.7744 31.5728C21.2192 31.5728 24.6318 30.2397 27.1875 27.6841C27.5384 27.3334 27.5384 26.7644 27.1874 26.4135Z" fill="#E03435"/>
</g>
<defs>
<clipPath id="clip0">
<rect width="46" height="46" fill="white" transform="translate(0 0.5)"/>
</clipPath>
</defs>
</svg>
