<svg width="50" height="49" viewBox="0 0 50 49" fill="none" xmlns="http://www.w3.org/2000/svg">
<g clip-path="url(#clip0)">
<path d="M45.6268 12.2172H33.4264V10.1312C33.4264 8.01346 31.6676 6.29053 29.5058 6.29053H19.5821C17.4203 6.29053 15.6615 8.01346 15.6615 10.1312V12.2172H3.46112C1.57692 12.2172 0.0439453 13.7189 0.0439453 15.5646V39.0864C0.0439453 40.9323 1.57692 42.4339 3.46112 42.4339H45.6267C47.511 42.4339 49.0438 40.9322 49.0438 39.0864V15.5646C49.0439 13.7189 47.511 12.2172 45.6268 12.2172ZM17.6137 10.1312C17.6137 9.06787 18.4968 8.20284 19.5822 8.20284H29.5058C30.5911 8.20284 31.4743 9.06787 31.4743 10.1312V12.2172H17.6137V10.1312ZM47.0918 39.0865C47.0918 39.8779 46.4346 40.5217 45.6268 40.5217H3.46112C2.65329 40.5217 1.9961 39.878 1.9961 39.0865V20.6355L16.9826 27.756C17.2864 29.5706 18.8978 30.9598 20.8348 30.9598H28.2531C30.19 30.9598 31.8015 29.5706 32.1053 27.756L41.4659 23.3083C41.9509 23.0779 42.1533 22.5059 41.9181 22.0308C41.6829 21.5556 41.0991 21.3572 40.6139 21.5878L31.8853 25.7351C31.3136 24.3169 29.9015 23.3105 28.2531 23.3105H20.8348C19.1864 23.3105 17.7742 24.317 17.2026 25.7351L1.9961 18.5101V15.5646C1.9961 14.7733 2.65329 14.1295 3.46112 14.1295H45.6267C46.4344 14.1295 47.0917 14.7732 47.0917 15.5646V39.0865H47.0918ZM18.8826 27.1352C18.8826 26.0807 19.7584 25.2229 20.8348 25.2229H28.2531C29.3296 25.2229 30.2053 26.0808 30.2053 27.1352C30.2053 28.1896 29.3295 29.0475 28.2531 29.0475H20.8348C19.7583 29.0475 18.8826 28.1896 18.8826 27.1352Z" fill="#FAFAFA"/>
<path d="M45.7381 20.2161C45.503 19.7408 44.919 19.5427 44.434 19.773L43.8351 20.0575C43.35 20.288 43.1475 20.86 43.3827 21.3351C43.5514 21.6758 43.8994 21.8742 44.2616 21.8742C44.4045 21.8742 44.5497 21.8435 44.6868 21.7782L45.2857 21.4937C45.7709 21.2632 45.9733 20.6912 45.7381 20.2161Z" fill="#FAFAFA"/>
</g>
<defs>
<clipPath id="clip0">
<rect width="49" height="48" fill="white" transform="translate(0.0439453 0.362305)"/>
</clipPath>
</defs>
</svg>
